<svg xmlns="http://www.w3.org/2000/svg">
  <symbol id="arrow-up-right" viewBox="0 0 24 24"><path d="M7 17 17 7M8 7h9v9"/></symbol>
  <symbol id="arrow-up" viewBox="0 0 24 24"><path d="m6 11 6-6 6 6M12 5v14"/></symbol>
  <symbol id="enter" viewBox="0 0 24 24"><path d="M20 5v6a4 4 0 0 1-4 4H5m5-5-5 5 5 5"/></symbol>
  <symbol id="close" viewBox="0 0 24 24"><path d="m6 6 12 12M18 6 6 18"/></symbol>
  <symbol id="check" viewBox="0 0 24 24"><path d="m5 12 4 4L19 6"/></symbol>
  <symbol id="alert" viewBox="0 0 24 24"><circle cx="12" cy="12" r="9"/><path d="M12 7v6M12 17h.01"/></symbol>
  <symbol id="spark" viewBox="0 0 24 24"><path d="M12 3c.8 5.2 3.8 8.2 9 9-5.2.8-8.2 3.8-9 9-.8-5.2-3.8-8.2-9-9 5.2-.8 8.2-3.8 9-9Z"/></symbol>
  <symbol id="minus" viewBox="0 0 24 24"><path d="M5 12h14"/></symbol>
  <symbol id="bag" viewBox="0 0 24 24"><path d="M5 8h14l-1 12H6L5 8Z"/><path d="M9 9V6a3 3 0 0 1 6 0v3"/></symbol>
  <symbol id="search" viewBox="0 0 24 24"><circle cx="10.5" cy="10.5" r="6.5"/><path d="m15.5 15.5 5 5"/></symbol>
  <symbol id="account" viewBox="0 0 24 24"><circle cx="12" cy="8" r="4"/><path d="M4.5 21a7.5 7.5 0 0 1 15 0"/></symbol>
  <symbol id="location" viewBox="0 0 24 24"><path d="M20 10c0 5-8 11-8 11S4 15 4 10a8 8 0 1 1 16 0Z"/><circle cx="12" cy="10" r="2.5"/></symbol>
  <symbol id="chevron-left" viewBox="0 0 24 24"><path d="m15 5-7 7 7 7"/></symbol>
  <symbol id="chevron-right" viewBox="0 0 24 24"><path d="m9 5 7 7-7 7"/></symbol>
</svg>
